:SAMPLES-PER-SECOND 30
:FULLY-SPECIFIED
:DEGREES
214
root  -1.58537 39.145 0.2211 -179.485 -74.2428 -176.685
RightUpLeg  -37.8884 5.34442 3.94937
RightLeg  44.3367 0.926249 0.7047
RightFoot  18.0457 -4.73934 18.2516
RightToes  -1.16417e-010 0 -3.6325e-017
Spine  10.585 -4.37146 -4.3625
Spine1  2.34731 -7.71031 15.4397
HEad  -24.7594 32.5297 -23.5854
LeftShoulder1  2.70501 -6.85947 -19.6275
LeftArm  -19.8459 9.93196 -44.3415
LeftForeArm  159.593 -67.8258 -155.099
LeftHand  -0.635221 1.27226 17.8765
RightShoulder  2.26562 4.28756 22.9003
RightArm  -35.0316 0.967602 39.8426
RightForeArm  -14.5214 55.0898 17.5136
RightHand  -1.85617 7.5382 -16.8888
LeftUpLeg  15.4046 5.82566 -10.9812
LeftLeg  12.6343 10.4607 2.58957
LeftFoot  1.22187 0.426889 -4.0036
LeftToes  6.91183e-011 3.39355e-011 2.1261e-011
215
root  -2.17884 37.8852 -0.0766906 -178.275 -75.9949 -176.094
RightUpLeg  -37.307 4.64275 5.47292
RightLeg  43.5615 -1.49997 -1.84945
RightFoot  7.89337 -1.53219 8.75029
RightToes  -1.16417e-010 0 -3.6325e-017
Spine  7.77694 -6.2674 -7.3129
Spine1  2.0147 -10.9204 20.8612
HEad  -23.9598 35.75 -24.0333
LeftShoulder1  2.30269 -5.59895 -18.7529
LeftArm  -24.6773 11.9292 -38.7609
LeftForeArm  163.026 -58.7953 -163.129
LeftHand  -0.530671 2.19357 19.1143
RightShoulder  2.39613 4.31765 24.5513
RightArm  -36.2924 -2.23406 38.5571
RightForeArm  -6.11451 66.7142 29.1775
RightHand  -1.73175 6.8725 -16.6118
LeftUpLeg  17.5787 6.2232 -8.12605
LeftLeg  11.2428 -2.58305 -0.535512
LeftFoot  -6.3749 0.198793 -3.22564
LeftToes  6.91183e-011 3.39355e-011 2.1261e-011
216
root  -2.55513 36.5519 -0.377992 179.484 -76.7503 -173.679
RightUpLeg  -35.9987 5.5567 7.6846
RightLeg  46.0812 -5.04937 -5.92674
RightFoot  -5.51483 0.0558796 -0.610843
RightToes  -1.16417e-010 0 -3.6325e-017
Spine  7.13858 -6.37779 -7.95913
Spine1  1.67437 -11.4759 22.5187
HEad  -23.29 35.3963 -22.9587
LeftShoulder1  2.0135 -4.85225 -17.4734
LeftArm  -28.9127 11.8888 -34.3335
LeftForeArm  162.522 -53.8833 -165.741
LeftHand  -0.502798 2.69547 21.4696
RightShoulder  2.3874 4.11313 25.2902
RightArm  -39.7932 -6.4341 38.7846
RightForeArm  14.5066 75.3202 51.529
RightHand  -1.64608 6.22069 -16.6533
LeftUpLeg  18.1803 3.98748 -7.20199
LeftLeg  15.0463 -10.7544 -1.53575
LeftFoot  -17.2172 0.104587 -0.265236
LeftToes  6.91183e-011 3.39355e-011 2.1261e-011
217
root  -2.84187 35.6707 -0.495275 174.205 -75.9429 -169.563
RightUpLeg  -34.9907 6.86966 9.97172
RightLeg  49.5171 -6.56708 -8.49083
RightFoot  -13.0603 -0.108422 -3.09909
RightToes  -1.16417e-010 0 -3.6325e-017
Spine  7.48936 -4.80218 -5.61282
Spine1  2.41431 -9.68764 20.4855
HEad  -23.2753 32.5536 -22.8256
LeftShoulder1  1.98393 -4.96888 -16.7235
LeftArm  -31.8981 11.2498 -32.6343
LeftForeArm  160.342 -54.3816 -165.31
LeftHand  -0.458878 2.98587 21.8402
RightShoulder  2.3871 4.10407 25.3276
RightArm  -43.1918 -8.67157 38.4428
RightForeArm  30.099 77.4874 67.3066
RightHand  -1.47573 5.44626 -16.014
LeftUpLeg  18.6407 -1.55281 -9.86626
LeftLeg  19.7875 -2.93152 0.25517
LeftFoot  -24.1026 0.364679 2.21939
LeftToes  6.91183e-011 3.39355e-011 2.1261e-011
218
root  -2.98887 35.7394 -0.619569 167.093 -78.0874 -163.651
RightUpLeg  -33.6794 5.36413 11.1252
RightLeg  49.7129 -6.74085 -8.78366
RightFoot  -12.4713 -0.107602 -1.95008
RightToes  -1.16417e-010 0 -3.6325e-017
Spine  7.67174 -4.08771 -3.81861
Spine1  4.18983 -8.9481 18.9013
HEad  -23.0598 29.1987 -23.1292
LeftShoulder1  2.02915 -5.23444 -16.5089
LeftArm  -31.3679 10.4919 -34.4019
LeftForeArm  154.116 -60.8005 -160.859
LeftHand  -0.502969 2.35978 19.211
RightShoulder  2.43217 4.38379 24.759
RightArm  -44.3433 -7.61699 37.9966
RightForeArm  14.798 74.6505 49.3015
RightHand  -1.44075 5.18883 -16.0048
LeftUpLeg  17.6268 -3.90688 -9.92596
LeftLeg  25.1786 3.82053 2.11934
LeftFoot  -21.7351 0.184427 0.195431
LeftToes  6.91183e-011 3.39355e-011 2.1261e-011
219
root  -2.79473 36.7275 -0.977703 136.344 -83.8348 -133.452
RightUpLeg  -30.6766 0.636351 11.0309
RightLeg  43.7606 -8.17436 -8.52275
RightFoot  -7.47891 0.0156402 -1.57654
RightToes  -1.16417e-010 0 -3.6325e-017
Spine  8.546 -4.55766 -4.55854
Spine1  5.12586 -9.70221 19.2257
HEad  -21.6313 25.256 -21.0849
LeftShoulder1  1.99425 -5.39082 -15.641
LeftArm  -26.8374 8.45851 -39.29
LeftForeArm  133.388 -72.8879 -141.145
LeftHand  -0.694813 0.16771 15.5885
RightShoulder  2.41455 4.54678 23.8628
RightArm  -42.9833 -5.20312 38.9003
RightForeArm  -2.23093 64.8605 25.921
RightHand  -1.62734 5.83821 -17.0048
LeftUpLeg  12.2872 -3.42814 -5.34949
LeftLeg  33.4578 0.721887 0.786194
LeftFoot  -10.7412 0.0996118 -4.16269
LeftToes  6.91183e-011 3.39355e-011 2.1261e-011
220
root  -2.17081 38.188 -1.4638 59.1101 -85.8923 -56.1648
RightUpLeg  -25.9169 -3.50168 10.4906
RightLeg  31.8764 -9.84585 -6.88266
RightFoot  -1.09812 0.083925 -1.15425
RightToes  -1.16417e-010 0 -3.6325e-017
Spine  11.4688 -4.31296 -4.08699
Spine1  4.29717 -8.79823 17.4418
HEad  -19.7808 19.2822 -15.8063
LeftShoulder1  2.00113 -6.22546 -13.6382
LeftArm  -20.7588 4.73617 -44.8843
LeftForeArm  52.3051 -77.2973 -58.5838
LeftHand  -0.892242 -2.79206 12.8472
RightShoulder  2.34743 4.40537 23.5345
RightArm  -38.9852 -3.29214 40.2225
RightForeArm  -5.99696 50.778 14.1399
RightHand  -1.848 6.54384 -18.152
LeftUpLeg  2.13878 -4.69458 -1.30948
LeftLeg  44.3288 -0.428476 0.148412
LeftFoot  2.95136 0.683089 -5.86537
LeftToes  6.91183e-011 3.39355e-011 2.1261e-011
221
root  -1.49159 39.5489 -1.81288 30.1566 -83.7413 -27.0832
RightUpLeg  -20.3189 -3.51013 8.74891
RightLeg  18.5913 -7.49082 -2.77981
RightFoot  5.01841 -0.67366 4.67184
RightToes  -1.16417e-010 0 -3.6325e-017
Spine  14.865 -2.64755 0.00232148
Spine1  3.81197 -4.89298 10.1177
HEad  -19.4626 11.2827 -9.4259
LeftShoulder1  2.10562 -7.77903 -11.5013
LeftArm  -15.184 -0.56833 -48.6196
LeftForeArm  13.2745 -57.6503 -16.0941
LeftHand  -0.957763 -4.72342 11.2333
RightShoulder  2.32641 4.44234 23.1104
RightArm  -30.5753 -1.60105 41.3764
RightForeArm  -4.77328 38.2874 9.02279
RightHand  -1.95159 6.84973 -18.673
LeftUpLeg  -9.4167 -4.85543 -0.312353
LeftLeg  54.6386 3.6822 6.21155
LeftFoot  11.6265 0.792767 -4.25166
LeftToes  6.91183e-011 3.39355e-011 2.1261e-011
222
root  -1.16918 40.5785 -2.013 19.3689 -85.1013 -16.5422
RightUpLeg  -14.5102 -0.279346 5.02783
RightLeg  10.1079 0.095354 1.02299
RightFoot  7.72805 -2.57853 15.854
RightToes  -1.16417e-010 0 -3.6325e-017
Spine  16.9026 -0.392965 4.25795
Spine1  5.53535 0.339128 -0.246022
HEad  -21.057 3.15701 -3.69497
LeftShoulder1  2.18475 -8.85924 -10.3937
LeftArm  -8.51845 -7.3157 -50.2082
LeftForeArm  5.41901 -36.204 -7.41029
LeftHand  -0.8357 -4.43228 10.1297
RightShoulder  2.2828 5.02684 20.4511
RightArm  -18.7063 0.197858 43.929
RightForeArm  -3.17756 32.094 7.2097
RightHand  -2.04127 7.48379 -18.582
LeftUpLeg  -18.8469 -2.92828 -1.7871
LeftLeg  61.3367 7.65594 15.2118
LeftFoot  13.207 0.346128 -1.93014
LeftToes  6.91183e-011 3.39355e-011 2.1261e-011
223
root  -1.13073 41.3238 -2.25006 -0.629517 -86.4505 2.67374
RightUpLeg  -8.99976 -0.667221 2.87656
RightLeg  9.74732 10.0289 2.06142
RightFoot  5.00769 -3.10972 21.4867
RightToes  -1.16417e-010 0 -3.6325e-017
Spine  18.0547 1.4482 6.65595
Spine1  8.82761 4.95948 -8.943
HEad  -23.3013 -3.3455 1.57714
LeftShoulder1  2.22704 -9.00174 -10.558
LeftArm  -5.06858 -13.5584 -50.3349
LeftForeArm  1.71811 -18.5057 -5.77444
LeftHand  -0.61794 -2.62099 9.18128
RightShoulder  2.13836 5.8334 16.2219
RightArm  -10.1972 1.33481 47.2672
RightForeArm  0.0630934 33.7759 7.50815
RightHand  -2.24965 8.71634 -18.689
LeftUpLeg  -25.4308 -1.81528 -3.54819
LeftLeg  62.0421 8.06708 16.6531
LeftFoot  11.9948 0.155535 -1.12641
LeftToes  6.91183e-011 3.39355e-011 2.1261e-011
224
root  -1.21934 41.6246 -2.60725 -15.3569 -84.6268 15.9277
RightUpLeg  -3.40204 1.18713 1.98217
RightLeg  16.9746 5.95745 1.26505
RightFoot  0.00354519 -1.67472 16.6176
RightToes  -1.16417e-010 0 -3.6325e-017
Spine  18.9054 2.10934 7.0636
Spine1  11.8086 7.31942 -13.3796
HEad  -25.1102 -7.61289 6.50148
LeftShoulder1  2.37747 -8.92435 -12.0182
LeftArm  -19.4729 -15.4074 -48.2575
LeftForeArm  13.7213 -6.3213 -10.261
LeftHand  -0.498824 -1.1315 9.03295
RightShoulder  2.0565 6.29805 14.1008
RightArm  -9.04277 1.22495 48.2133
RightForeArm  4.66974 42.2547 9.84642
RightHand  -2.38122 9.24218 -19.0731
LeftUpLeg  -29.7757 -4.17189 -4.46513
LeftLeg  57.8205 5.52015 10.0293
LeftFoot  12.7942 0.510437 -2.71992
LeftToes  6.91183e-011 3.39355e-011 2.1261e-011
225
root  -1.57477 41.2755 -3.01133 -11.3065 -79.7316 10.2464
RightUpLeg  3.58302 0.597149 3.33594
RightLeg  24.2964 -6.13629 -3.14855
RightFoot  -1.16581 -0.808836 9.24939
RightToes  -1.16417e-010 0 -3.6325e-017
Spine  18.5112 1.63963 6.27747
Spine1  13.7935 7.00929 -13.7798
HEad  -25.9857 -10.352 10.5765
LeftShoulder1  2.71998 -9.02541 -14.859
LeftArm  -20.9943 -11.2006 -45.1256
LeftForeArm  12.5996 -5.64381 -9.51788
LeftHand  -0.536864 -1.14077 9.67834
RightShoulder  2.1727 6.26749 15.5023
RightArm  -13.4593 -0.812891 46.3219
RightForeArm  9.99538 56.5379 16.705
RightHand  -2.13146 8.20985 -18.3535
LeftUpLeg  -32.4767 -9.2545 -4.81009
LeftLeg  51.9434 2.76424 4.19978
LeftFoot  17.3133 1.14261 -4.88843
LeftToes  6.91183e-011 3.39355e-011 2.1261e-011
226
root  -2.35962 40.3958 -3.34023 -5.57465 -74.5193 4.1904
RightUpLeg  10.6803 -2.65308 6.1463
RightLeg  26.0663 -14.0183 -7.49417
RightFoot  1.41265 -0.610429 5.51054
RightToes  -1.16417e-010 0 -3.6325e-017
Spine  15.5967 1.32922 5.80519
Spine1  14.7579 6.2525 -13.0166
HEad  -25.712 -13.2344 13.9817
LeftShoulder1  3.09765 -8.90975 -18.4052
LeftArm  -17.3829 -3.43822 -41.1103
LeftForeArm  6.82309 -12.7654 -8.31152
LeftHand  -0.648588 -2.43394 9.85414
RightShoulder  2.33988 5.83547 18.5826
RightArm  -20.7927 -5.79592 43.6987
RightForeArm  27.3585 73.0328 40.0521
RightHand  -1.63182 6.23699 -16.493
LeftUpLeg  -34.2271 -13.084 -4.68816
LeftLeg  47.7076 2.53214 3.37323
LeftFoot  22.8112 1.70263 -6.00002
LeftToes  6.91183e-011 3.39355e-011 2.1261e-011
